<mxfile host="Electron" agent="Mozilla/5.0 (Windows NT 10.0; Win64; x64) AppleWebKit/537.36 (KHTML, like Gecko) draw.io/24.7.8 Chrome/128.0.6613.36 Electron/32.0.1 Safari/537.36" version="24.7.8">
  <diagram name="Page-1" id="6leRTfANHcOdvnvADJDR">
    <mxGraphModel dx="1134" dy="730" grid="0" gridSize="10" guides="1" tooltips="1" connect="1" arrows="1" fold="1" page="0" pageScale="1" pageWidth="850" pageHeight="1100" math="0" shadow="0">
      <root>
        <mxCell id="0" />
        <mxCell id="1" parent="0" />
        <mxCell id="zIG-3h_cC3fK5yzNdsKD-1" value="User" style="shape=umlLifeline;perimeter=lifelinePerimeter;whiteSpace=wrap;container=1;dropTarget=0;collapsible=0;recursiveResize=0;outlineConnect=0;portConstraint=eastwest;newEdgeStyle={&quot;edgeStyle&quot;:&quot;elbowEdgeStyle&quot;,&quot;elbow&quot;:&quot;vertical&quot;,&quot;curved&quot;:0,&quot;rounded&quot;:0};participant=umlActor;verticalAlign=bottom;labelPosition=center;verticalLabelPosition=top;align=center;size=65;" vertex="1" parent="1">
          <mxGeometry x="20" y="20" width="35" height="761" as="geometry" />
        </mxCell>
        <mxCell id="zIG-3h_cC3fK5yzNdsKD-2" value="Main" style="shape=umlLifeline;perimeter=lifelinePerimeter;whiteSpace=wrap;container=1;dropTarget=0;collapsible=0;recursiveResize=0;outlineConnect=0;portConstraint=eastwest;newEdgeStyle={&quot;edgeStyle&quot;:&quot;elbowEdgeStyle&quot;,&quot;elbow&quot;:&quot;vertical&quot;,&quot;curved&quot;:0,&quot;rounded&quot;:0};size=65;" vertex="1" parent="1">
          <mxGeometry x="220" y="20" width="150" height="761" as="geometry" />
        </mxCell>
        <mxCell id="zIG-3h_cC3fK5yzNdsKD-3" value="Admin" style="shape=umlLifeline;perimeter=lifelinePerimeter;whiteSpace=wrap;container=1;dropTarget=0;collapsible=0;recursiveResize=0;outlineConnect=0;portConstraint=eastwest;newEdgeStyle={&quot;edgeStyle&quot;:&quot;elbowEdgeStyle&quot;,&quot;elbow&quot;:&quot;vertical&quot;,&quot;curved&quot;:0,&quot;rounded&quot;:0};size=65;" vertex="1" parent="1">
          <mxGeometry x="420" y="20" width="150" height="761" as="geometry" />
        </mxCell>
        <mxCell id="zIG-3h_cC3fK5yzNdsKD-4" value="loop" style="shape=umlFrame;dashed=1;pointerEvents=0;dropTarget=0;strokeColor=#B3B3B3;height=20;width=40" vertex="1" parent="1">
          <mxGeometry x="84" y="251" width="627" height="223" as="geometry" />
        </mxCell>
        <mxCell id="zIG-3h_cC3fK5yzNdsKD-5" value="[selama login belum&#xa;benar]" style="text;strokeColor=none;fillColor=none;align=center;verticalAlign=middle;whiteSpace=wrap;" vertex="1" parent="zIG-3h_cC3fK5yzNdsKD-4">
          <mxGeometry x="59.431279620853076" width="567.568720379147" height="20" as="geometry" />
        </mxCell>
        <mxCell id="zIG-3h_cC3fK5yzNdsKD-6" value="alt" style="shape=umlFrame;dashed=1;pointerEvents=0;dropTarget=0;strokeColor=#B3B3B3;height=20;width=30" vertex="1" parent="1">
          <mxGeometry x="84" y="484" width="626" height="202" as="geometry" />
        </mxCell>
        <mxCell id="zIG-3h_cC3fK5yzNdsKD-7" value="[jika admin]" style="text;strokeColor=none;fillColor=none;align=center;verticalAlign=middle;whiteSpace=wrap;" vertex="1" parent="zIG-3h_cC3fK5yzNdsKD-6">
          <mxGeometry x="44.50236966824645" width="581.4976303317536" height="20" as="geometry" />
        </mxCell>
        <mxCell id="zIG-3h_cC3fK5yzNdsKD-8" value="login()" style="verticalAlign=bottom;edgeStyle=elbowEdgeStyle;elbow=vertical;curved=0;rounded=0;endArrow=block;" edge="1" parent="1" source="zIG-3h_cC3fK5yzNdsKD-1" target="zIG-3h_cC3fK5yzNdsKD-2">
          <mxGeometry relative="1" as="geometry">
            <Array as="points">
              <mxPoint x="204" y="127" />
            </Array>
          </mxGeometry>
        </mxCell>
        <mxCell id="zIG-3h_cC3fK5yzNdsKD-9" value="showMenu()" style="verticalAlign=bottom;edgeStyle=elbowEdgeStyle;elbow=vertical;curved=0;rounded=0;endArrow=block;" edge="1" parent="1" source="zIG-3h_cC3fK5yzNdsKD-2" target="zIG-3h_cC3fK5yzNdsKD-3">
          <mxGeometry relative="1" as="geometry">
            <Array as="points">
              <mxPoint x="404" y="179" />
            </Array>
          </mxGeometry>
        </mxCell>
        <mxCell id="zIG-3h_cC3fK5yzNdsKD-10" value="" style="verticalAlign=bottom;edgeStyle=elbowEdgeStyle;elbow=vertical;curved=0;rounded=0;dashed=1;dashPattern=2 3;endArrow=block;entryX=1.101;entryY=0.466;entryDx=0;entryDy=0;entryPerimeter=0;" edge="1" parent="1">
          <mxGeometry relative="1" as="geometry">
            <Array as="points">
              <mxPoint x="334.09" y="232.15" />
              <mxPoint x="407.09" y="232.15" />
            </Array>
            <mxPoint x="494.59" y="232.15" as="sourcePoint" />
            <mxPoint x="304.99899999999997" y="232.00000000000003" as="targetPoint" />
          </mxGeometry>
        </mxCell>
        <mxCell id="zIG-3h_cC3fK5yzNdsKD-11" value="Jika admin" style="verticalAlign=bottom;edgeStyle=elbowEdgeStyle;elbow=vertical;curved=0;rounded=0;endArrow=block;" edge="1" parent="1" source="zIG-3h_cC3fK5yzNdsKD-1" target="zIG-3h_cC3fK5yzNdsKD-2">
          <mxGeometry relative="1" as="geometry">
            <Array as="points">
              <mxPoint x="204" y="350" />
            </Array>
          </mxGeometry>
        </mxCell>
        <mxCell id="zIG-3h_cC3fK5yzNdsKD-12" value="[jika admin]" style="verticalAlign=bottom;edgeStyle=elbowEdgeStyle;elbow=vertical;curved=0;rounded=0;endArrow=block;" edge="1" parent="1" source="zIG-3h_cC3fK5yzNdsKD-2" target="zIG-3h_cC3fK5yzNdsKD-3">
          <mxGeometry relative="1" as="geometry">
            <Array as="points">
              <mxPoint x="404" y="402" />
            </Array>
          </mxGeometry>
        </mxCell>
        <mxCell id="zIG-3h_cC3fK5yzNdsKD-13" value="" style="verticalAlign=bottom;edgeStyle=elbowEdgeStyle;elbow=vertical;curved=0;rounded=0;dashed=1;dashPattern=2 3;endArrow=block;" edge="1" parent="1">
          <mxGeometry relative="1" as="geometry">
            <Array as="points">
              <mxPoint x="416.45" y="452.52" />
            </Array>
            <mxPoint x="492" y="456" as="sourcePoint" />
            <mxPoint x="303.997619047619" y="452.52" as="targetPoint" />
          </mxGeometry>
        </mxCell>
        <mxCell id="zIG-3h_cC3fK5yzNdsKD-14" value="[jika admin]" style="verticalAlign=bottom;edgeStyle=elbowEdgeStyle;elbow=vertical;curved=0;rounded=0;endArrow=block;" edge="1" parent="1" source="zIG-3h_cC3fK5yzNdsKD-1" target="zIG-3h_cC3fK5yzNdsKD-2">
          <mxGeometry relative="1" as="geometry">
            <Array as="points">
              <mxPoint x="204" y="562" />
            </Array>
          </mxGeometry>
        </mxCell>
        <mxCell id="zIG-3h_cC3fK5yzNdsKD-15" value="[jika siswa]" style="verticalAlign=bottom;edgeStyle=elbowEdgeStyle;elbow=vertical;curved=0;rounded=0;endArrow=block;" edge="1" parent="1" source="zIG-3h_cC3fK5yzNdsKD-2" target="zIG-3h_cC3fK5yzNdsKD-3">
          <mxGeometry relative="1" as="geometry">
            <Array as="points">
              <mxPoint x="404" y="614" />
            </Array>
          </mxGeometry>
        </mxCell>
        <mxCell id="zIG-3h_cC3fK5yzNdsKD-16" value="" style="verticalAlign=bottom;edgeStyle=elbowEdgeStyle;elbow=vertical;curved=0;rounded=0;dashed=1;dashPattern=2 3;endArrow=block;" edge="1" parent="1" source="zIG-3h_cC3fK5yzNdsKD-3" target="zIG-3h_cC3fK5yzNdsKD-2">
          <mxGeometry relative="1" as="geometry">
            <Array as="points">
              <mxPoint x="407" y="666" />
            </Array>
          </mxGeometry>
        </mxCell>
        <mxCell id="zIG-3h_cC3fK5yzNdsKD-17" value="siswaÂ " style="shape=umlLifeline;perimeter=lifelinePerimeter;whiteSpace=wrap;container=1;dropTarget=0;collapsible=0;recursiveResize=0;outlineConnect=0;portConstraint=eastwest;newEdgeStyle={&quot;edgeStyle&quot;:&quot;elbowEdgeStyle&quot;,&quot;elbow&quot;:&quot;vertical&quot;,&quot;curved&quot;:0,&quot;rounded&quot;:0};size=65;" vertex="1" parent="1">
          <mxGeometry x="608" y="20" width="150" height="761" as="geometry" />
        </mxCell>
        <mxCell id="zIG-3h_cC3fK5yzNdsKD-18" value="&lt;span style=&quot;color: rgb(0, 0, 0); font-family: Helvetica; font-style: normal; font-variant-ligatures: normal; font-variant-caps: normal; font-weight: 400; letter-spacing: normal; orphans: 2; text-align: center; text-indent: 0px; text-transform: none; widows: 2; word-spacing: 0px; -webkit-text-stroke-width: 0px; white-space: nowrap; background-color: rgb(255, 255, 255); text-decoration-thickness: initial; text-decoration-style: initial; text-decoration-color: initial; float: none; display: inline !important;&quot;&gt;&lt;font style=&quot;font-size: 18px;&quot;&gt;data&lt;/font&gt;&lt;/span&gt;" style="text;whiteSpace=wrap;html=1;" vertex="1" parent="1">
          <mxGeometry x="569.33" y="408" width="38.67" height="36" as="geometry" />
        </mxCell>
        <mxCell id="zIG-3h_cC3fK5yzNdsKD-19" value="&lt;span style=&quot;color: rgb(0, 0, 0); font-family: Helvetica; font-style: normal; font-variant-ligatures: normal; font-variant-caps: normal; font-weight: 400; letter-spacing: normal; orphans: 2; text-align: center; text-indent: 0px; text-transform: none; widows: 2; word-spacing: 0px; -webkit-text-stroke-width: 0px; white-space: nowrap; background-color: rgb(255, 255, 255); text-decoration-thickness: initial; text-decoration-style: initial; text-decoration-color: initial; float: none; display: inline !important;&quot;&gt;&lt;font style=&quot;font-size: 18px;&quot;&gt;data&lt;/font&gt;&lt;/span&gt;" style="text;whiteSpace=wrap;html=1;" vertex="1" parent="1">
          <mxGeometry x="577" y="621" width="38.67" height="36" as="geometry" />
        </mxCell>
        <mxCell id="zIG-3h_cC3fK5yzNdsKD-20" value="&lt;div style=&quot;text-align: center;&quot;&gt;&lt;span style=&quot;background-color: initial; font-size: 18px; text-wrap: nowrap;&quot;&gt;menu&lt;/span&gt;&lt;/div&gt;" style="text;whiteSpace=wrap;html=1;" vertex="1" parent="1">
          <mxGeometry x="564" y="188" width="38.67" height="36" as="geometry" />
        </mxCell>
        <mxCell id="zIG-3h_cC3fK5yzNdsKD-21" value="" style="rounded=0;whiteSpace=wrap;html=1;" vertex="1" parent="1">
          <mxGeometry x="295" y="126" width="9" height="654" as="geometry" />
        </mxCell>
        <mxCell id="zIG-3h_cC3fK5yzNdsKD-22" value="" style="rounded=0;whiteSpace=wrap;html=1;" vertex="1" parent="1">
          <mxGeometry x="495" y="180" width="9" height="70" as="geometry" />
        </mxCell>
        <mxCell id="zIG-3h_cC3fK5yzNdsKD-23" value="" style="rounded=0;whiteSpace=wrap;html=1;" vertex="1" parent="1">
          <mxGeometry x="495" y="401" width="9" height="59" as="geometry" />
        </mxCell>
        <mxCell id="zIG-3h_cC3fK5yzNdsKD-24" value="" style="rounded=0;whiteSpace=wrap;html=1;" vertex="1" parent="1">
          <mxGeometry x="495" y="615" width="9" height="59" as="geometry" />
        </mxCell>
      </root>
    </mxGraphModel>
  </diagram>
</mxfile>
